# Blender v3.0.0 OBJ File: 'untitled.blend'
# www.blender.org
mtllib Platform.mtl
o Cube.002_Cube.003
v 6.707904 -0.999999 5.526636
v 6.707904 1.000001 5.526636
v 6.707904 -0.999999 -5.526634
v 6.707904 1.000001 -5.526634
v -6.707904 -0.999999 5.526636
v -6.707904 1.000001 5.526636
v -6.707904 -0.999999 -5.526634
v -6.707904 1.000001 -5.526634
vt -0.045409 -0.495248
vt 1.050682 -0.495248
vt 1.050682 -0.296920
vt -0.045410 -0.296920
vt 1.249010 -0.296920
vt 1.249010 1.033452
vt 1.050681 1.033452
vt 1.050681 1.231781
vt -0.045410 1.231780
vt -0.045410 1.033451
vt -0.243738 1.033451
vt -0.243739 -0.296920
vt 1.050680 2.562152
vt -0.045411 2.562151
vn 1.0000 0.0000 0.0000
vn 0.0000 0.0000 -1.0000
vn -1.0000 0.0000 0.0000
vn 0.0000 0.0000 1.0000
vn 0.0000 -1.0000 0.0000
vn 0.0000 1.0000 0.0000
usemtl Front_Bricks
s off
f 1/1/1 3/2/1 4/3/1 2/4/1
f 3/5/2 7/6/2 8/7/2 4/3/2
f 7/8/3 5/9/3 6/10/3 8/7/3
f 5/11/4 1/12/4 2/4/4 6/10/4
f 3/13/5 1/14/5 5/9/5 7/8/5
f 8/7/6 6/10/6 2/4/6 4/3/6
